<mxfile host="app.diagrams.net" agent="Mozilla/5.0 (Macintosh; Intel Mac OS X 10_15_7) AppleWebKit/537.36 (KHTML, like Gecko) Chrome/130.0.0.0 Safari/537.36" version="24.8.3">
  <diagram name="Page-1" id="5yACLu_tYYQ9U0vQjmjW">
    <mxGraphModel dx="1781" dy="581" grid="1" gridSize="10" guides="1" tooltips="1" connect="1" arrows="1" fold="1" page="1" pageScale="1" pageWidth="827" pageHeight="1169" math="0" shadow="0">
      <root>
        <mxCell id="0" />
        <mxCell id="1" parent="0" />
        <mxCell id="UiUJdN5zVrT5HYEZLua9-2" value="" style="triangle;whiteSpace=wrap;html=1;" parent="1" vertex="1">
          <mxGeometry x="-330" y="100" width="200" height="200" as="geometry" />
        </mxCell>
        <mxCell id="UiUJdN5zVrT5HYEZLua9-3" value="" style="endArrow=classic;html=1;rounded=0;entryX=-0.02;entryY=0.405;entryDx=0;entryDy=0;entryPerimeter=0;" parent="1" edge="1">
          <mxGeometry width="50" height="50" relative="1" as="geometry">
            <mxPoint x="-520" y="170" as="sourcePoint" />
            <mxPoint x="-334" y="171" as="targetPoint" />
          </mxGeometry>
        </mxCell>
        <mxCell id="UiUJdN5zVrT5HYEZLua9-6" value="" style="endArrow=classic;html=1;rounded=0;entryX=-0.02;entryY=0.405;entryDx=0;entryDy=0;entryPerimeter=0;" parent="1" edge="1">
          <mxGeometry width="50" height="50" relative="1" as="geometry">
            <mxPoint x="-490" y="240" as="sourcePoint" />
            <mxPoint x="-334" y="238" as="targetPoint" />
          </mxGeometry>
        </mxCell>
        <mxCell id="UiUJdN5zVrT5HYEZLua9-7" value="&lt;font style=&quot;font-size: 24px;&quot;&gt;Ramp voltage&lt;/font&gt;" style="text;html=1;align=center;verticalAlign=middle;resizable=0;points=[];autosize=1;strokeColor=none;fillColor=none;" parent="1" vertex="1">
          <mxGeometry x="-510" y="195" width="170" height="40" as="geometry" />
        </mxCell>
        <mxCell id="UiUJdN5zVrT5HYEZLua9-11" value="" style="endArrow=none;html=1;rounded=0;exitX=1;exitY=0.5;exitDx=0;exitDy=0;" parent="1" source="UiUJdN5zVrT5HYEZLua9-2" edge="1">
          <mxGeometry width="50" height="50" relative="1" as="geometry">
            <mxPoint x="-220" y="290" as="sourcePoint" />
            <mxPoint x="-90" y="200" as="targetPoint" />
          </mxGeometry>
        </mxCell>
        <mxCell id="UiUJdN5zVrT5HYEZLua9-14" value="&lt;font style=&quot;font-size: 24px;&quot;&gt;Comparator&lt;/font&gt;" style="text;html=1;align=center;verticalAlign=middle;whiteSpace=wrap;rounded=0;" parent="1" vertex="1">
          <mxGeometry x="-280" y="185" width="60" height="30" as="geometry" />
        </mxCell>
        <mxCell id="lRFk7MbAO2a7tx0u4MGu-1" value="&lt;font style=&quot;font-size: 24px;&quot;&gt;Pixel&lt;/font&gt;" style="rounded=0;whiteSpace=wrap;html=1;" parent="1" vertex="1">
          <mxGeometry x="-580" y="30" width="120" height="60" as="geometry" />
        </mxCell>
        <mxCell id="lRFk7MbAO2a7tx0u4MGu-2" value="" style="endArrow=none;html=1;rounded=0;entryX=0.5;entryY=1;entryDx=0;entryDy=0;" parent="1" target="lRFk7MbAO2a7tx0u4MGu-1" edge="1">
          <mxGeometry width="50" height="50" relative="1" as="geometry">
            <mxPoint x="-520" y="170" as="sourcePoint" />
            <mxPoint x="-90" y="180" as="targetPoint" />
          </mxGeometry>
        </mxCell>
        <mxCell id="lRFk7MbAO2a7tx0u4MGu-9" value="&lt;font style=&quot;font-size: 24px;&quot;&gt;Pixel Voltage&lt;/font&gt;" style="text;html=1;align=center;verticalAlign=middle;resizable=0;points=[];autosize=1;strokeColor=none;fillColor=none;" parent="1" vertex="1">
          <mxGeometry x="-500" y="128" width="160" height="40" as="geometry" />
        </mxCell>
      </root>
    </mxGraphModel>
  </diagram>
</mxfile>
